name D:\school\WTK\thesis\model\3dpredictsim\Results\MidTarsalJoint\Fal_s1_bCst_PF_Gefen2002_ls150_MT_nl_Gefen2002_MTP_T1_spx10_ig23_PFact.mot
datacolumns 128
datarows 4
range 0.00000000 0.03427756
endheader
time	pelvis_tilt	pelvis_list	pelvis_rotation	pelvis_tx	pelvis_ty	pelvis_tz	hip_flexion_l	hip_adduction_l	hip_rotation_l	hip_flexion_r	hip_adduction_r	hip_rotation_r	knee_angle_l	knee_angle_r	ankle_angle_l	ankle_angle_r	subtalar_angle_l	subtalar_angle_r	mtj_angle_l	mtj_angle_r	mtp_angle_l	mtp_angle_r	lumbar_extension	lumbar_bending	lumbar_rotation	arm_flex_l	arm_add_l	arm_rot_l	arm_flex_r	arm_add_r	arm_rot_r	elbow_flex_l	elbow_flex_r	pro_sup_l	pro_sup_r	glut_med1_l/activation	glut_med2_l/activation	glut_med3_l/activation	glut_min1_l/activation	glut_min2_l/activation	glut_min3_l/activation	semimem_l/activation	semiten_l/activation	bifemlh_l/activation	bifemsh_l/activation	sar_l/activation	add_long_l/activation	add_brev_l/activation	add_mag1_l/activation	add_mag2_l/activation	add_mag3_l/activation	tfl_l/activation	pect_l/activation	grac_l/activation	glut_max1_l/activation	glut_max2_l/activation	glut_max3_l/activation	iliacus_l/activation	psoas_l/activation	quad_fem_l/activation	gem_l/activation	peri_l/activation	rect_fem_l/activation	vas_med_l/activation	vas_int_l/activation	vas_lat_l/activation	med_gas_l/activation	lat_gas_l/activation	soleus_l/activation	tib_post_l/activation	flex_dig_l/activation	flex_hal_l/activation	tib_ant_l/activation	per_brev_l/activation	per_long_l/activation	per_tert_l/activation	ext_dig_l/activation	ext_hal_l/activation	ercspn_l/activation	intobl_l/activation	extobl_l/activation	glut_med1_r/activation	glut_med2_r/activation	glut_med3_r/activation	glut_min1_r/activation	glut_min2_r/activation	glut_min3_r/activation	semimem_r/activation	semiten_r/activation	bifemlh_r/activation	bifemsh_r/activation	sar_r/activation	add_long_r/activation	add_brev_r/activation	add_mag1_r/activation	add_mag2_r/activation	add_mag3_r/activation	tfl_r/activation	pect_r/activation	grac_r/activation	glut_max1_r/activation	glut_max2_r/activation	glut_max3_r/activation	iliacus_r/activation	psoas_r/activation	quad_fem_r/activation	gem_r/activation	peri_r/activation	rect_fem_r/activation	vas_med_r/activation	vas_int_r/activation	vas_lat_r/activation	med_gas_r/activation	lat_gas_r/activation	soleus_r/activation	tib_post_r/activation	flex_dig_r/activation	flex_hal_r/activation	tib_ant_r/activation	per_brev_r/activation	per_long_r/activation	per_tert_r/activation	ext_dig_r/activation	ext_hal_r/activation	ercspn_r/activation	intobl_r/activation	extobl_r/activation	
          0.00000000	         -2.92915014	         -0.59215140	          4.31658141	          0.00000000	          0.93188516	         -0.00175664	        -16.02140545	          1.00450440	          8.53972185	         27.51428597	          1.95155745	         -0.97337042	         -9.43889250	         -8.55822654	         -2.42051389	          3.48908832	          5.08439008	         -3.15604205	          7.48246072	          1.36097532	          6.53002077	         -0.52574448	         -0.89405517	         -1.19246303	         -1.89697155	          3.27530901	        -13.45118267	         11.60190731	         -6.79828764	        -13.45371842	          7.15011131	         30.97504543	         18.48824205	         86.51662706	         86.51662706	          0.46129297	          0.11953402	          0.08434951	          0.40660311	          0.22916473	          0.11478413	          0.05000011	          0.05000002	          0.05000003	          0.06145834	          0.10396966	          0.05000000	          0.05000000	          0.05000001	          0.05000003	          0.05000002	          0.26563482	          0.05000003	          0.05000007	          0.05952210	          0.05947797	          0.05000013	          0.30319199	          0.57429095	          0.05039184	          0.05952172	          0.07436951	          0.07204764	          0.05000001	          0.05000002	          0.05000002	          0.33988051	          0.35465284	          0.49434887	          0.17402402	          0.10041195	          0.11938744	          0.05000000	          0.05000007	          0.06886093	          0.05000004	          0.16527714	          0.05952154	          0.05000000	          0.05000000	          0.05000002	          0.05000002	          0.05000003	          0.05859558	          0.05000001	          0.05000002	          0.05000015	          0.05952153	          0.05952141	          0.05952154	          0.05143993	          0.05288377	          0.14229611	          0.20902853	          0.14239194	          0.09451720	          0.06993974	          0.05129292	          0.06279986	          0.09891546	          0.05000154	          0.05952133	          0.06814527	          0.05000018	          0.05257172	          0.20236525	          0.05000023	          0.05000004	          0.05000005	          0.05259704	          0.05239845	          0.05002029	          0.05302391	          0.05293457	          0.06374931	          0.05433410	          0.05005995	          0.05033542	          0.43062268	          0.24201000	          0.17236013	          0.05285843	          0.47182278	          0.05040261	          0.05000003	          0.13716597	          0.11953383	
          0.01142585	         -2.92988408	         -0.54929335	          4.46434912	          0.01712618	          0.93215310	         -0.00153115	        -15.98238924	          0.81872511	          8.47063750	         26.95839857	          2.20913272	         -0.79836612	        -11.12448882	         -8.81565787	         -2.85248320	          2.81789058	          6.60882030	         -3.55128600	          5.62145094	          1.27507360	          9.75465621	         -0.55701545	         -0.72184265	         -1.04810958	         -1.96727401	          3.02599978	        -13.45540024	         11.96770515	         -7.68560841	        -13.44974528	          7.07508855	         32.04618982	         18.21043061	         86.51662706	         86.51662706	          0.38750086	          0.10041240	          0.07085629	          0.34155964	          0.19250571	          0.09642234	          0.05000153	          0.05000006	          0.05000005	          0.05162699	          0.08733786	          0.07680774	          0.08411725	          0.05100687	          0.05000448	          0.06137308	          0.22314175	          0.05584577	          0.05000020	          0.05000057	          0.05000010	          0.05000022	          0.25469097	          0.48242279	          0.05000001	          0.05000022	          0.06247277	          0.06486905	          0.07061233	          0.07198085	          0.09136916	          0.28551050	          0.29791973	          0.45928477	          0.14618574	          0.08434926	          0.10028928	          0.19816457	          0.08331725	          0.09976652	          0.05000000	          0.13883810	          0.05000000	          0.05000000	          0.07085629	          0.07716459	          0.05000010	          0.05000005	          0.05000000	          0.05952154	          0.05952140	          0.05000004	          0.05000000	          0.05000001	          0.05000000	          0.05000001	          0.05000004	          0.11953346	          0.21040569	          0.25096875	          0.16707215	          0.07320971	          0.05000002	          0.08434707	          0.08309360	          0.05000002	          0.05000001	          0.07300995	          0.08247552	          0.07085652	          0.43303133	          0.14556795	          0.05000046	          0.07317122	          0.13617284	          0.14158946	          0.10313887	          0.05000000	          0.05000000	          0.06295048	          0.07085626	          0.07085586	          0.07085624	          0.44585757	          0.22016822	          0.15654394	          0.13436696	          0.48209774	          0.05952161	          0.05000000	          0.11522380	          0.10041225	
          0.02285170	         -2.92568022	         -0.52298099	          4.58179820	          0.03453560	          0.93239212	         -0.00132063	        -15.86516936	          0.62192735	          8.39357813	         26.33187421	          2.40503983	         -0.56958686	        -12.90995385	         -9.41031602	         -3.51553248	          2.05795282	          8.13361188	         -3.93319480	          3.66151184	          1.07714769	         13.33647484	         -0.55207121	         -0.53339107	         -0.87116022	         -2.02819167	          2.70220371	        -13.46052481	         12.28757851	         -8.59066338	        -13.45544732	          7.01147342	         33.11547033	         17.96317181	         86.51662706	         86.51662706	          0.37013508	          0.08434963	          0.05952155	          0.28692104	          0.16171096	          0.08099785	          0.05000029	          0.05000008	          0.05000016	          0.05000001	          0.07336662	          0.09354877	          0.07066132	          0.05952162	          0.05506348	          0.05951629	          0.18744622	          0.07080807	          0.05448055	          0.05006046	          0.05014052	          0.05952059	          0.21394857	          0.45035462	          0.05952153	          0.05828092	          0.05247914	          0.05449215	          0.08554936	          0.08696146	          0.11952840	          0.23983795	          0.25026210	          0.40520414	          0.12280070	          0.07085609	          0.08424621	          0.20211043	          0.07405179	          0.08854981	          0.43300139	          0.24621663	          0.25289561	          0.05269136	          0.05952155	          0.07085624	          0.18444009	          0.05000001	          0.20332170	          0.05000001	          0.05000001	          0.05000004	          0.06736335	          0.05000007	          0.06707814	          0.07222857	          0.07085622	          0.10041194	          0.17674752	          0.21082179	          0.14034598	          0.09608904	          0.05000014	          0.07085447	          0.06980170	          0.05000009	          0.05616136	          0.06133076	          0.06928209	          0.05952176	          0.36376017	          0.12228175	          0.10207794	          0.06146617	          0.11438955	          0.11893969	          0.08663995	          0.06476977	          0.07085625	          0.05288042	          0.05952153	          0.05952124	          0.05952154	          0.37453462	          0.19658820	          0.16841062	          0.11287255	          0.50646585	          0.05000006	          0.05000000	          0.09679168	          0.08434950	
          0.03427756	         -2.91735137	         -0.51776522	          4.66830110	          0.05206246	          0.93254489	         -0.00111545	        -15.64913740	          0.42411109	          8.30856084	         25.65946971	          2.55170246	         -0.32554531	        -14.82249803	        -10.03500526	         -4.35354085	          1.07705806	          9.58646786	         -4.31609609	          1.64831947	          0.87774964	         16.99597293	         -0.50868073	         -0.34291158	         -0.66027348	         -2.07850812	          2.33430749	        -13.46876297	         12.57746270	         -9.48190486	        -13.47379685	          6.97284034	         34.17111511	         17.72978443	         86.51662706	         86.51662706	          0.33858532	          0.07085639	          0.05000001	          0.29102417	          0.13584238	          0.06804079	          0.05000028	          0.05000001	          0.05000001	          0.05000003	          0.06163033	          0.11677726	          0.05935780	          0.05000015	          0.05000010	          0.05000009	          0.15746084	          0.05952350	          0.05000004	          0.05000008	          0.05000005	          0.05000004	          0.17972365	          0.42723639	          0.05000000	          0.05000002	          0.05000000	          0.07771776	          0.07186424	          0.07305046	          0.10040776	          0.20147155	          0.21022817	          0.34238693	          0.10315652	          0.05952140	          0.07076952	          0.30211010	          0.10041222	          0.08434946	          0.57263744	          0.28479681	          0.21244050	          0.08630970	          0.05000001	          0.05952151	          0.29045564	          0.29365530	          0.37120545	          0.34717857	          0.27728550	          0.29895537	          0.05658738	          0.07152277	          0.05634785	          0.06398673	          0.05952151	          0.08434924	          0.14847358	          0.17709708	          0.12643753	          0.14599527	          0.05000005	          0.05952010	          0.07086817	          0.21512204	          0.16936188	          0.15759794	          0.05819918	          0.05000019	          0.30557019	          0.10272059	          0.15439206	          0.05163355	          0.09609094	          0.09991328	          0.07278036	          0.05440868	          0.05952152	          0.05000003	          0.05000000	          0.05000001	          0.05000002	          0.57554431	          0.35402035	          0.18516053	          0.49644340	          0.62594070	          0.34522996	          0.07079753	          0.08130811	          0.07085628	
